solid OpenSCAD_Model
  facet normal -1 0 0
    outer loop
      vertex 0 127.45 0
      vertex 0 66.5 1.5
      vertex 0 126.7 1.5
    endloop
  endfacet
  facet normal -1 0 -0
    outer loop
      vertex 0 66.5 1.5
      vertex 0 127.45 0
      vertex 0 65.75 0
    endloop
  endfacet
  facet normal 0 -0.894427 0.447214
    outer loop
      vertex 1 66.75 1.5
      vertex 1 66.0079 0.015748
      vertex 95.25 66.75 1.5
    endloop
  endfacet
  facet normal 0 0.894427 0.447214
    outer loop
      vertex 95.25 127.2 0
      vertex 1 126.45 1.5
      vertex 95.25 126.45 1.5
    endloop
  endfacet
  facet normal 0 0.894427 0.447214
    outer loop
      vertex 1 126.45 1.5
      vertex 95.25 127.2 0
      vertex 1 127.2 0
    endloop
  endfacet
  facet normal 0 -0.894438 0.447192
    outer loop
      vertex 95.25 66 0
      vertex 1 66.0079 0.015748
      vertex 1 66 0
    endloop
  endfacet
  facet normal 4.56051e-009 -0.894427 0.447214
    outer loop
      vertex 1 66.0079 0.015748
      vertex 95.25 66 0
      vertex 95.25 66.75 1.5
    endloop
  endfacet
  facet normal 0 0 -1
    outer loop
      vertex 0 65.75 0
      vertex 1 66 0
      vertex 1 65.9167 0
    endloop
  endfacet
  facet normal -0 0 -1
    outer loop
      vertex 1 66 0
      vertex 0 65.75 0
      vertex 1 127.2 0
    endloop
  endfacet
  facet normal 0 0 -1
    outer loop
      vertex 0 127.45 0
      vertex 1 127.2 0
      vertex 0 65.75 0
    endloop
  endfacet
  facet normal 0 0 -1
    outer loop
      vertex 1 127.2 0
      vertex 0 127.45 0
      vertex 1 127.283 0
    endloop
  endfacet
  facet normal 0 0 -1
    outer loop
      vertex 1 66 0
      vertex 95.25 127.2 0
      vertex 95.25 66 0
    endloop
  endfacet
  facet normal -0 0 -1
    outer loop
      vertex 95.25 127.2 0
      vertex 1 66 0
      vertex 1 127.2 0
    endloop
  endfacet
  facet normal 1 -0 0
    outer loop
      vertex 95.25 66.75 1.5
      vertex 95.25 127.2 0
      vertex 95.25 126.45 1.5
    endloop
  endfacet
  facet normal 1 0 0
    outer loop
      vertex 95.25 127.2 0
      vertex 95.25 66.75 1.5
      vertex 95.25 66 0
    endloop
  endfacet
  facet normal 0 0 1
    outer loop
      vertex 0 126.7 1.5
      vertex 1 126.45 1.5
      vertex 1 126.533 1.5
    endloop
  endfacet
  facet normal 0 0 1
    outer loop
      vertex 1 126.45 1.5
      vertex 0 126.7 1.5
      vertex 1 66.75 1.5
    endloop
  endfacet
  facet normal 0 0 1
    outer loop
      vertex 0 66.5 1.5
      vertex 1 66.75 1.5
      vertex 0 126.7 1.5
    endloop
  endfacet
  facet normal 0 0 1
    outer loop
      vertex 1 66.75 1.5
      vertex 0 66.5 1.5
      vertex 1 66.6667 1.5
    endloop
  endfacet
  facet normal 0 0 1
    outer loop
      vertex 95.25 126.45 1.5
      vertex 13.3873 96.75 1.5
      vertex 95.25 66.75 1.5
    endloop
  endfacet
  facet normal 0 0 1
    outer loop
      vertex 95.25 126.45 1.5
      vertex 13.3619 97.2338 1.5
      vertex 13.3873 96.75 1.5
    endloop
  endfacet
  facet normal 0 0 1
    outer loop
      vertex 95.25 126.45 1.5
      vertex 13.3577 97.3131 1.5
      vertex 13.3619 97.2338 1.5
    endloop
  endfacet
  facet normal 0 0 1
    outer loop
      vertex 95.25 126.45 1.5
      vertex 13.3453 97.3916 1.5
      vertex 13.3577 97.3131 1.5
    endloop
  endfacet
  facet normal 0 0 1
    outer loop
      vertex 95.25 126.45 1.5
      vertex 13.2695 97.8701 1.5
      vertex 13.3453 97.3916 1.5
    endloop
  endfacet
  facet normal 0 0 1
    outer loop
      vertex 95.25 126.45 1.5
      vertex 13.249 97.9468 1.5
      vertex 13.2695 97.8701 1.5
    endloop
  endfacet
  facet normal 0 0 1
    outer loop
      vertex 95.25 126.45 1.5
      vertex 13.1236 98.4147 1.5
      vertex 13.249 97.9468 1.5
    endloop
  endfacet
  facet normal 0 0 1
    outer loop
      vertex 95.25 126.45 1.5
      vertex 12.95 98.867 1.5
      vertex 13.1236 98.4147 1.5
    endloop
  endfacet
  facet normal 0 0 1
    outer loop
      vertex 95.25 126.45 1.5
      vertex 12.9215 98.9412 1.5
      vertex 12.95 98.867 1.5
    endloop
  endfacet
  facet normal 0 0 1
    outer loop
      vertex 95.25 126.45 1.5
      vertex 12.8854 99.012 1.5
      vertex 12.9215 98.9412 1.5
    endloop
  endfacet
  facet normal 0 0 1
    outer loop
      vertex 95.25 126.45 1.5
      vertex 12.6655 99.4436 1.5
      vertex 12.8854 99.012 1.5
    endloop
  endfacet
  facet normal 0 0 1
    outer loop
      vertex 95.25 126.45 1.5
      vertex 12.6222 99.5103 1.5
      vertex 12.6655 99.4436 1.5
    endloop
  endfacet
  facet normal 0 0 1
    outer loop
      vertex 95.25 126.45 1.5
      vertex 12.3584 99.9165 1.5
      vertex 12.6222 99.5103 1.5
    endloop
  endfacet
  facet normal 0 0 1
    outer loop
      vertex 95.25 126.45 1.5
      vertex 12.0535 100.293 1.5
      vertex 12.3584 99.9165 1.5
    endloop
  endfacet
  facet normal 0 0 1
    outer loop
      vertex 95.25 126.45 1.5
      vertex 12.0035 100.355 1.5
      vertex 12.0535 100.293 1.5
    endloop
  endfacet
  facet normal -0 0 1
    outer loop
      vertex 1 126.45 1.5
      vertex 12.0035 100.355 1.5
      vertex 95.25 126.45 1.5
    endloop
  endfacet
  facet normal 0 0 1
    outer loop
      vertex 12.0035 100.355 1.5
      vertex 1 126.45 1.5
      vertex 11.6048 100.754 1.5
    endloop
  endfacet
  facet normal 0 0 1
    outer loop
      vertex 11.6048 100.754 1.5
      vertex 1 126.45 1.5
      vertex 11.543 100.804 1.5
    endloop
  endfacet
  facet normal 0 0 1
    outer loop
      vertex 11.543 100.804 1.5
      vertex 1 126.45 1.5
      vertex 11.1665 101.108 1.5
    endloop
  endfacet
  facet normal 0 0 1
    outer loop
      vertex 11.1665 101.108 1.5
      vertex 1 126.45 1.5
      vertex 10.7603 101.372 1.5
    endloop
  endfacet
  facet normal 0 0 1
    outer loop
      vertex 10.7603 101.372 1.5
      vertex 1 126.45 1.5
      vertex 10.6936 101.415 1.5
    endloop
  endfacet
  facet normal 0 0 1
    outer loop
      vertex 10.6936 101.415 1.5
      vertex 1 126.45 1.5
      vertex 10.262 101.635 1.5
    endloop
  endfacet
  facet normal 0 0 1
    outer loop
      vertex 10.262 101.635 1.5
      vertex 1 126.45 1.5
      vertex 10.1912 101.672 1.5
    endloop
  endfacet
  facet normal 0 0 1
    outer loop
      vertex 10.1912 101.672 1.5
      vertex 1 126.45 1.5
      vertex 10.117 101.7 1.5
    endloop
  endfacet
  facet normal 0 0 1
    outer loop
      vertex 10.117 101.7 1.5
      vertex 1 126.45 1.5
      vertex 9.66475 101.874 1.5
    endloop
  endfacet
  facet normal 0 0 1
    outer loop
      vertex 9.66475 101.874 1.5
      vertex 1 126.45 1.5
      vertex 9.19682 101.999 1.5
    endloop
  endfacet
  facet normal 0 0 1
    outer loop
      vertex 9.19682 101.999 1.5
      vertex 1 126.45 1.5
      vertex 9.12007 102.02 1.5
    endloop
  endfacet
  facet normal 0 0 1
    outer loop
      vertex 9.12007 102.02 1.5
      vertex 1 126.45 1.5
      vertex 8.6416 102.095 1.5
    endloop
  endfacet
  facet normal 0 0 1
    outer loop
      vertex 8.6416 102.095 1.5
      vertex 1 126.45 1.5
      vertex 8.56312 102.108 1.5
    endloop
  endfacet
  facet normal 0 0 1
    outer loop
      vertex 8.56312 102.108 1.5
      vertex 1 126.45 1.5
      vertex 8.48377 102.112 1.5
    endloop
  endfacet
  facet normal 0 0 1
    outer loop
      vertex 8 102.137 1.5
      vertex 1 126.45 1.5
      vertex 8 91.3627 1.5
    endloop
  endfacet
  facet normal 0 0 1
    outer loop
      vertex 8.48377 102.112 1.5
      vertex 1 126.45 1.5
      vertex 8 102.137 1.5
    endloop
  endfacet
  facet normal -0 0 1
    outer loop
      vertex 13.3619 96.2662 1.5
      vertex 95.25 66.75 1.5
      vertex 13.3873 96.75 1.5
    endloop
  endfacet
  facet normal -0 0 1
    outer loop
      vertex 13.3577 96.1869 1.5
      vertex 95.25 66.75 1.5
      vertex 13.3619 96.2662 1.5
    endloop
  endfacet
  facet normal -0 0 1
    outer loop
      vertex 13.3453 96.1084 1.5
      vertex 95.25 66.75 1.5
      vertex 13.3577 96.1869 1.5
    endloop
  endfacet
  facet normal -0 0 1
    outer loop
      vertex 13.2695 95.6299 1.5
      vertex 95.25 66.75 1.5
      vertex 13.3453 96.1084 1.5
    endloop
  endfacet
  facet normal -0 0 1
    outer loop
      vertex 13.249 95.5532 1.5
      vertex 95.25 66.75 1.5
      vertex 13.2695 95.6299 1.5
    endloop
  endfacet
  facet normal -0 0 1
    outer loop
      vertex 13.1236 95.0852 1.5
      vertex 95.25 66.75 1.5
      vertex 13.249 95.5532 1.5
    endloop
  endfacet
  facet normal -0 0 1
    outer loop
      vertex 12.95 94.633 1.5
      vertex 95.25 66.75 1.5
      vertex 13.1236 95.0852 1.5
    endloop
  endfacet
  facet normal -0 0 1
    outer loop
      vertex 12.9215 94.5588 1.5
      vertex 95.25 66.75 1.5
      vertex 12.95 94.633 1.5
    endloop
  endfacet
  facet normal -0 0 1
    outer loop
      vertex 12.8854 94.488 1.5
      vertex 95.25 66.75 1.5
      vertex 12.9215 94.5588 1.5
    endloop
  endfacet
  facet normal -0 0 1
    outer loop
      vertex 12.6655 94.0564 1.5
      vertex 95.25 66.75 1.5
      vertex 12.8854 94.488 1.5
    endloop
  endfacet
  facet normal -0 0 1
    outer loop
      vertex 12.6222 93.9897 1.5
      vertex 95.25 66.75 1.5
      vertex 12.6655 94.0564 1.5
    endloop
  endfacet
  facet normal -0 0 1
    outer loop
      vertex 12.3584 93.5835 1.5
      vertex 95.25 66.75 1.5
      vertex 12.6222 93.9897 1.5
    endloop
  endfacet
  facet normal -0 0 1
    outer loop
      vertex 12.0535 93.207 1.5
      vertex 95.25 66.75 1.5
      vertex 12.3584 93.5835 1.5
    endloop
  endfacet
  facet normal -0 0 1
    outer loop
      vertex 12.0035 93.1452 1.5
      vertex 95.25 66.75 1.5
      vertex 12.0535 93.207 1.5
    endloop
  endfacet
  facet normal 0 0 1
    outer loop
      vertex 1 66.75 1.5
      vertex 12.0035 93.1452 1.5
      vertex 11.6048 92.7465 1.5
    endloop
  endfacet
  facet normal 0 0 1
    outer loop
      vertex 1 66.75 1.5
      vertex 11.6048 92.7465 1.5
      vertex 11.543 92.6965 1.5
    endloop
  endfacet
  facet normal 0 0 1
    outer loop
      vertex 1 66.75 1.5
      vertex 11.543 92.6965 1.5
      vertex 11.1665 92.3916 1.5
    endloop
  endfacet
  facet normal 0 0 1
    outer loop
      vertex 1 66.75 1.5
      vertex 11.1665 92.3916 1.5
      vertex 10.7603 92.1278 1.5
    endloop
  endfacet
  facet normal 0 0 1
    outer loop
      vertex 1 66.75 1.5
      vertex 10.7603 92.1278 1.5
      vertex 10.6936 92.0845 1.5
    endloop
  endfacet
  facet normal 0 0 1
    outer loop
      vertex 1 66.75 1.5
      vertex 10.6936 92.0845 1.5
      vertex 10.262 91.8646 1.5
    endloop
  endfacet
  facet normal 0 0 1
    outer loop
      vertex 1 66.75 1.5
      vertex 10.262 91.8646 1.5
      vertex 10.1912 91.8285 1.5
    endloop
  endfacet
  facet normal 0 0 1
    outer loop
      vertex 1 66.75 1.5
      vertex 10.1912 91.8285 1.5
      vertex 10.117 91.8 1.5
    endloop
  endfacet
  facet normal 0 0 1
    outer loop
      vertex 1 66.75 1.5
      vertex 10.117 91.8 1.5
      vertex 9.66475 91.6264 1.5
    endloop
  endfacet
  facet normal 0 0 1
    outer loop
      vertex 1 66.75 1.5
      vertex 9.66475 91.6264 1.5
      vertex 9.19682 91.501 1.5
    endloop
  endfacet
  facet normal 0 0 1
    outer loop
      vertex 1 66.75 1.5
      vertex 9.19682 91.501 1.5
      vertex 9.12007 91.4805 1.5
    endloop
  endfacet
  facet normal 0 0 1
    outer loop
      vertex 1 66.75 1.5
      vertex 9.12007 91.4805 1.5
      vertex 8.6416 91.4047 1.5
    endloop
  endfacet
  facet normal 0 0 1
    outer loop
      vertex 1 66.75 1.5
      vertex 8.6416 91.4047 1.5
      vertex 8.56312 91.3923 1.5
    endloop
  endfacet
  facet normal 0 0 1
    outer loop
      vertex 1 66.75 1.5
      vertex 8.56312 91.3923 1.5
      vertex 8.48377 91.3881 1.5
    endloop
  endfacet
  facet normal 0 0 1
    outer loop
      vertex 1 66.75 1.5
      vertex 8.48377 91.3881 1.5
      vertex 8 91.3627 1.5
    endloop
  endfacet
  facet normal 0 0 1
    outer loop
      vertex 12.0035 93.1452 1.5
      vertex 1 66.75 1.5
      vertex 95.25 66.75 1.5
    endloop
  endfacet
  facet normal 0 0 1
    outer loop
      vertex 1 66.75 1.5
      vertex 8 91.3627 1.5
      vertex 1 126.45 1.5
    endloop
  endfacet
  facet normal 0.14744 0.884652 0.442326
    outer loop
      vertex 1 127.283 0
      vertex 0 126.7 1.5
      vertex 1 126.533 1.5
    endloop
  endfacet
  facet normal 0.14744 0.884652 0.442326
    outer loop
      vertex 0 126.7 1.5
      vertex 1 127.283 0
      vertex 0 127.45 0
    endloop
  endfacet
  facet normal 0.14744 -0.884652 0.442326
    outer loop
      vertex 0 66.5 1.5
      vertex 0 65.75 0
      vertex 1 66.6667 1.5
    endloop
  endfacet
  facet normal 0.14744 -0.884652 0.442326
    outer loop
      vertex 1 66.6667 1.5
      vertex 0 65.75 0
      vertex 1 65.9167 0
    endloop
  endfacet
  facet normal 1 0 0
    outer loop
      vertex 1 126.533 1.5
      vertex 1 127.2 0
      vertex 1 127.283 0
    endloop
  endfacet
  facet normal 1 0 0
    outer loop
      vertex 1 127.2 0
      vertex 1 126.533 1.5
      vertex 1 126.45 1.5
    endloop
  endfacet
  facet normal 1 -0 0
    outer loop
      vertex 1 66.6667 1.5
      vertex 1 66.0079 0.015748
      vertex 1 66.75 1.5
    endloop
  endfacet
  facet normal 1 0 0
    outer loop
      vertex 1 65.9167 0
      vertex 1 66.0079 0.015748
      vertex 1 66.6667 1.5
    endloop
  endfacet
  facet normal 1 0 0
    outer loop
      vertex 1 66.0079 0.015748
      vertex 1 65.9167 0
      vertex 1 66 0
    endloop
  endfacet
  facet normal -0.0054793 0.104527 0.994507
    outer loop
      vertex 8.32704 93.6385 0.996233
      vertex 8 95.7033 0.777409
      vertex 8 93.6213 0.996233
    endloop
  endfacet
  facet normal -0.0161907 0.308978 0.950931
    outer loop
      vertex 8.56312 91.3923 1.5
      vertex 8.54108 91.602 1.43148
      vertex 8.48377 91.3881 1.5
    endloop
  endfacet
  facet normal -0.201091 0.0538818 0.97809
    outer loop
      vertex 13.0633 95.6738 1.43148
      vertex 11.0603 96.0995 0.996233
      vertex 10.9756 95.7832 0.996233
    endloop
  endfacet
  facet normal -0.16851 0.259485 0.950932
    outer loop
      vertex 11.0426 92.5622 1.43148
      vertex 10.7603 92.1278 1.5
      vertex 11.1665 92.3916 1.5
    endloop
  endfacet
  facet normal -0.168513 0.259486 0.950931
    outer loop
      vertex 10.7603 92.1278 1.5
      vertex 11.0426 92.5622 1.43148
      vertex 10.5882 92.2671 1.43148
    endloop
  endfacet
  facet normal -0.275676 0.140465 0.950932
    outer loop
      vertex 12.4829 94.1618 1.43148
      vertex 12.8854 94.488 1.5
      vertex 12.7289 94.6446 1.43148
    endloop
  endfacet
  facet normal -0.275677 0.140465 0.950932
    outer loop
      vertex 12.8854 94.488 1.5
      vertex 12.4829 94.1618 1.43148
      vertex 12.6655 94.0564 1.5
    endloop
  endfacet
  facet normal -0.185494 0.0945143 0.97809
    outer loop
      vertex 12.4829 94.1618 1.43148
      vertex 12.7289 94.6446 1.43148
      vertex 10.7095 95.1857 0.996233
    endloop
  endfacet
  facet normal -0.305591 0.0483994 0.950932
    outer loop
      vertex 13.3453 96.1084 1.5
      vertex 13.3577 96.1869 1.5
      vertex 13.148 96.2089 1.43148
    endloop
  endfacet
  facet normal -0.194357 0.0746074 0.97809
    outer loop
      vertex 12.7289 94.6446 1.43148
      vertex 10.9756 95.7832 0.996233
      vertex 10.8582 95.4774 0.996233
    endloop
  endfacet
  facet normal -0.11087 -0.288854 0.950932
    outer loop
      vertex 10.1912 101.672 1.5
      vertex 10.117 101.7 1.5
      vertex 10.1054 101.479 1.43148
    endloop
  endfacet
  facet normal -0.0484003 -0.305587 0.950933
    outer loop
      vertex 8.6416 102.095 1.5
      vertex 9.07623 101.813 1.43148
      vertex 9.12007 102.02 1.5
    endloop
  endfacet
  facet normal -0.0484022 -0.305589 0.950932
    outer loop
      vertex 9.07623 101.813 1.43148
      vertex 8.6416 102.095 1.5
      vertex 8.54108 101.898 1.43148
    endloop
  endfacet
  facet normal -0.140469 0.275681 0.95093
    outer loop
      vertex 10.5882 92.2671 1.43148
      vertex 10.262 91.8646 1.5
      vertex 10.6936 92.0845 1.5
    endloop
  endfacet
  facet normal -0.140463 0.275676 0.950933
    outer loop
      vertex 10.262 91.8646 1.5
      vertex 10.5882 92.2671 1.43148
      vertex 10.1054 92.0211 1.43148
    endloop
  endfacet
  facet normal -0.16179 0.131015 0.97809
    outer loop
      vertex 11.8468 93.2863 1.43148
      vertex 12.1878 93.7074 1.43148
      vertex 10.5312 94.911 0.996233
    endloop
  endfacet
  facet normal -0.288851 -0.110878 0.950932
    outer loop
      vertex 12.95 98.867 1.5
      vertex 12.923 98.3496 1.43148
      vertex 13.1236 98.4147 1.5
    endloop
  endfacet
  facet normal -0.288851 -0.110878 0.950932
    outer loop
      vertex 12.923 98.3496 1.43148
      vertex 12.95 98.867 1.5
      vertex 12.7289 98.8554 1.43148
    endloop
  endfacet
  facet normal -0.29886 -0.0800773 0.950931
    outer loop
      vertex 13.2695 97.8701 1.5
      vertex 13.249 97.9468 1.5
      vertex 13.0633 97.8262 1.43148
    endloop
  endfacet
  facet normal -0.131015 0.16179 0.978089
    outer loop
      vertex 11.4637 92.9032 1.43148
      vertex 10.0935 94.4249 0.996233
      vertex 9.839 94.2188 0.996233
    endloop
  endfacet
  facet normal -0.0325683 -0.205621 0.97809
    outer loop
      vertex 8.65049 99.8103 0.996233
      vertex 9.07623 101.813 1.43148
      vertex 8.54108 101.898 1.43148
    endloop
  endfacet
  facet normal -0.174599 -0.113385 0.978089
    outer loop
      vertex 12.4829 99.3382 1.43148
      vertex 12.1878 99.7926 1.43148
      vertex 10.7095 98.3143 0.996233
    endloop
  endfacet
  facet normal -0.131014 -0.16179 0.97809
    outer loop
      vertex 10.0935 99.0751 0.996233
      vertex 11.4637 100.597 1.43148
      vertex 9.839 99.2812 0.996233
    endloop
  endfacet
  facet normal -0.259488 -0.168504 0.950932
    outer loop
      vertex 12.6655 99.4436 1.5
      vertex 12.6222 99.5103 1.5
      vertex 12.4829 99.3382 1.43148
    endloop
  endfacet
  facet normal -0.240449 0.194714 0.950932
    outer loop
      vertex 12.1878 93.7074 1.43148
      vertex 12.0535 93.207 1.5
      vertex 12.3584 93.5835 1.5
    endloop
  endfacet
  facet normal -0.240452 0.194714 0.950931
    outer loop
      vertex 12.0535 93.207 1.5
      vertex 12.1878 93.7074 1.43148
      vertex 11.8468 93.2863 1.43148
    endloop
  endfacet
  facet normal -0.0163706 0.103382 0.994507
    outer loop
      vertex 8.32704 93.6385 0.996233
      vertex 8.21762 95.7262 0.777409
      vertex 8.10941 95.709 0.777409
    endloop
  endfacet
  facet normal -0.0475162 0.093264 0.994507
    outer loop
      vertex 9.56434 94.0405 0.996233
      vertex 8.52336 95.8435 0.777409
      vertex 8.42574 95.7938 0.777409
    endloop
  endfacet
  facet normal -0.0484003 0.305587 0.950933
    outer loop
      vertex 9.07623 91.6867 1.43148
      vertex 8.6416 91.4047 1.5
      vertex 9.12007 91.4805 1.5
    endloop
  endfacet
  facet normal -0.0484022 0.305589 0.950932
    outer loop
      vertex 8.6416 91.4047 1.5
      vertex 9.07623 91.6867 1.43148
      vertex 8.54108 91.602 1.43148
    endloop
  endfacet
  facet normal -0.0800906 -0.298851 0.950933
    outer loop
      vertex 9.19682 101.999 1.5
      vertex 9.12007 102.02 1.5
      vertex 9.07623 101.813 1.43148
    endloop
  endfacet
  facet normal -0.010898 -0.207899 0.97809
    outer loop
      vertex 8.32704 99.8615 0.996233
      vertex 8.54108 101.898 1.43148
      vertex 8 99.8787 0.996233
    endloop
  endfacet
  facet normal -0.037515 -0.0977169 0.994507
    outer loop
      vertex 8.42574 97.7062 0.777409
      vertex 8.96682 99.7256 0.996233
      vertex 8.32345 97.7455 0.777409
    endloop
  endfacet
  facet normal -0.0161907 -0.308978 0.950931
    outer loop
      vertex 8.54108 101.898 1.43148
      vertex 8.56312 102.108 1.5
      vertex 8.48377 102.112 1.5
    endloop
  endfacet
  facet normal -0.240452 -0.194714 0.950931
    outer loop
      vertex 12.0535 100.293 1.5
      vertex 12.0035 100.355 1.5
      vertex 11.8468 100.214 1.43148
    endloop
  endfacet
  facet normal -0.168507 -0.259493 0.95093
    outer loop
      vertex 10.7603 101.372 1.5
      vertex 10.6936 101.415 1.5
      vertex 10.5882 101.233 1.43148
    endloop
  endfacet
  facet normal -0.110879 -0.288848 0.950933
    outer loop
      vertex 9.59959 101.673 1.43148
      vertex 10.117 101.7 1.5
      vertex 9.66475 101.874 1.5
    endloop
  endfacet
  facet normal -0.110879 -0.288853 0.950931
    outer loop
      vertex 10.117 101.7 1.5
      vertex 9.59959 101.673 1.43148
      vertex 10.1054 101.479 1.43148
    endloop
  endfacet
  facet normal -0.305591 0.0484004 0.950932
    outer loop
      vertex 13.0633 95.6738 1.43148
      vertex 13.3453 96.1084 1.5
      vertex 13.148 96.2089 1.43148
    endloop
  endfacet
  facet normal -0.305592 0.0484015 0.950931
    outer loop
      vertex 13.3453 96.1084 1.5
      vertex 13.0633 95.6738 1.43148
      vertex 13.2695 95.6299 1.5
    endloop
  endfacet
  facet normal -0.275679 -0.140461 0.950932
    outer loop
      vertex 12.9215 98.9412 1.5
      vertex 12.8854 99.012 1.5
      vertex 12.7289 98.8554 1.43148
    endloop
  endfacet
  facet normal -0.087784 -0.0570081 0.994507
    outer loop
      vertex 10.7095 98.3143 0.996233
      vertex 10.5312 98.589 0.996233
      vertex 8.84681 97.3652 0.777409
    endloop
  endfacet
  facet normal -0.305591 -0.0483994 0.950932
    outer loop
      vertex 13.3577 97.3131 1.5
      vertex 13.3453 97.3916 1.5
      vertex 13.148 97.2911 1.43148
    endloop
  endfacet
  facet normal -0.174599 0.113385 0.978089
    outer loop
      vertex 12.1878 93.7074 1.43148
      vertex 12.4829 94.1618 1.43148
      vertex 10.7095 95.1857 0.996233
    endloop
  endfacet
  facet normal -0.174598 0.113386 0.97809
    outer loop
      vertex 12.1878 93.7074 1.43148
      vertex 10.7095 95.1857 0.996233
      vertex 10.5312 94.911 0.996233
    endloop
  endfacet
  facet normal -0.194357 0.0746072 0.97809
    outer loop
      vertex 12.7289 94.6446 1.43148
      vertex 12.923 95.1504 1.43148
      vertex 10.9756 95.7832 0.996233
    endloop
  endfacet
  facet normal -0.275679 0.140461 0.950932
    outer loop
      vertex 12.8854 94.488 1.5
      vertex 12.9215 94.5588 1.5
      vertex 12.7289 94.6446 1.43148
    endloop
  endfacet
  facet normal -0.11087 0.288854 0.950932
    outer loop
      vertex 10.117 91.8 1.5
      vertex 10.1912 91.8285 1.5
      vertex 10.1054 92.0211 1.43148
    endloop
  endfacet
  facet normal -0.113386 0.174598 0.97809
    outer loop
      vertex 10.5882 92.2671 1.43148
      vertex 11.0426 92.5622 1.43148
      vertex 9.56434 94.0405 0.996233
    endloop
  endfacet
  facet normal -0.010898 0.207899 0.97809
    outer loop
      vertex 8.54108 91.602 1.43148
      vertex 8.32704 93.6385 0.996233
      vertex 8 93.6213 0.996233
    endloop
  endfacet
  facet normal 0.965926 0.258819 0
    outer loop
      vertex 8.54108 91.602 1.43148
      vertex 8 93.6213 0.996233
      vertex 8 93.6213 0.996234
    endloop
  endfacet
  facet normal -0.161791 0.131014 0.978089
    outer loop
      vertex 11.8468 93.2863 1.43148
      vertex 10.5312 94.911 0.996233
      vertex 10.3251 94.6565 0.996233
    endloop
  endfacet
  facet normal -0.101104 0.0270906 0.994507
    outer loop
      vertex 10.9756 95.7832 0.996233
      vertex 11.0603 96.0995 0.996233
      vertex 9.02385 96.5324 0.777409
    endloop
  endfacet
  facet normal -0.0977182 0.0375109 0.994507
    outer loop
      vertex 10.8582 95.4774 0.996233
      vertex 10.9756 95.7832 0.996233
      vertex 8.95623 96.3243 0.777409
    endloop
  endfacet
  facet normal -0.093263 0.047518 0.994507
    outer loop
      vertex 10.7095 95.1857 0.996233
      vertex 8.95623 96.3243 0.777409
      vertex 8.90648 96.2266 0.777409
    endloop
  endfacet
  facet normal -0.0658741 0.0813423 0.994507
    outer loop
      vertex 9.839 94.2188 0.996233
      vertex 8.70039 95.9721 0.777409
      vertex 8.61525 95.9032 0.777409
    endloop
  endfacet
  facet normal -0.0877848 0.0570065 0.994507
    outer loop
      vertex 10.7095 95.1857 0.996233
      vertex 8.90648 96.2266 0.777409
      vertex 8.84681 96.1348 0.777409
    endloop
  endfacet
  facet normal -0.087784 0.0570081 0.994507
    outer loop
      vertex 10.5312 94.911 0.996233
      vertex 10.7095 95.1857 0.996233
      vertex 8.84681 96.1348 0.777409
    endloop
  endfacet
  facet normal -0.0325683 0.205621 0.97809
    outer loop
      vertex 9.07623 91.6867 1.43148
      vertex 8.65049 93.6897 0.996233
      vertex 8.54108 91.602 1.43148
    endloop
  endfacet
  facet normal -0.0161939 0.308979 0.950931
    outer loop
      vertex 8 91.5736 1.43148
      vertex 8.48377 91.3881 1.5
      vertex 8.54108 91.602 1.43148
    endloop
  endfacet
  facet normal -0.0161925 0.308982 0.95093
    outer loop
      vertex 8.48377 91.3881 1.5
      vertex 8 91.5736 1.43148
      vertex 8 91.3627 1.5
    endloop
  endfacet
  facet normal -0.0538831 -0.201091 0.978089
    outer loop
      vertex 9.59959 101.673 1.43148
      vertex 9.07623 101.813 1.43148
      vertex 8.96682 99.7256 0.996233
    endloop
  endfacet
  facet normal -0.140458 -0.27568 0.950932
    outer loop
      vertex 10.262 101.635 1.5
      vertex 10.1912 101.672 1.5
      vertex 10.1054 101.479 1.43148
    endloop
  endfacet
  facet normal -0.194708 -0.240455 0.950931
    outer loop
      vertex 11.6048 100.754 1.5
      vertex 11.543 100.804 1.5
      vertex 11.4637 100.597 1.43148
    endloop
  endfacet
  facet normal -0.218782 -0.218781 0.950931
    outer loop
      vertex 11.6048 100.754 1.5
      vertex 11.8468 100.214 1.43148
      vertex 12.0035 100.355 1.5
    endloop
  endfacet
  facet normal -0.21878 -0.21878 0.950932
    outer loop
      vertex 11.8468 100.214 1.43148
      vertex 11.6048 100.754 1.5
      vertex 11.4637 100.597 1.43148
    endloop
  endfacet
  facet normal -0.205622 0.032567 0.97809
    outer loop
      vertex 13.0633 95.6738 1.43148
      vertex 13.148 96.2089 1.43148
      vertex 11.0603 96.0995 0.996233
    endloop
  endfacet
  facet normal -0.103382 -0.0163738 0.994507
    outer loop
      vertex 11.1115 97.077 0.996233
      vertex 11.0603 97.4005 0.996233
      vertex 9.02385 96.9676 0.777409
    endloop
  endfacet
  facet normal -0.201091 -0.0538818 0.97809
    outer loop
      vertex 11.0603 97.4005 0.996233
      vertex 13.0633 97.8262 1.43148
      vertex 10.9756 97.7168 0.996233
    endloop
  endfacet
  facet normal -0.194357 -0.0746074 0.97809
    outer loop
      vertex 10.9756 97.7168 0.996233
      vertex 12.7289 98.8554 1.43148
      vertex 10.8582 98.0226 0.996233
    endloop
  endfacet
  facet normal -0.185494 -0.0945143 0.97809
    outer loop
      vertex 12.7289 98.8554 1.43148
      vertex 12.4829 99.3382 1.43148
      vertex 10.7095 98.3143 0.996233
    endloop
  endfacet
  facet normal -0.201091 0.0538821 0.97809
    outer loop
      vertex 12.923 95.1504 1.43148
      vertex 13.0633 95.6738 1.43148
      vertex 10.9756 95.7832 0.996233
    endloop
  endfacet
  facet normal -0.288851 0.110878 0.950932
    outer loop
      vertex 12.9215 94.5588 1.5
      vertex 12.95 94.633 1.5
      vertex 12.7289 94.6446 1.43148
    endloop
  endfacet
  facet normal -0.131015 0.16179 0.97809
    outer loop
      vertex 11.0426 92.5622 1.43148
      vertex 11.4637 92.9032 1.43148
      vertex 9.839 94.2188 0.996233
    endloop
  endfacet
  facet normal -0.113385 0.174599 0.97809
    outer loop
      vertex 11.0426 92.5622 1.43148
      vertex 9.839 94.2188 0.996233
      vertex 9.56434 94.0405 0.996233
    endloop
  endfacet
  facet normal -0.168507 0.259493 0.95093
    outer loop
      vertex 10.6936 92.0845 1.5
      vertex 10.7603 92.1278 1.5
      vertex 10.5882 92.2671 1.43148
    endloop
  endfacet
  facet normal -0.218782 0.218781 0.950931
    outer loop
      vertex 11.8468 93.2863 1.43148
      vertex 11.6048 92.7465 1.5
      vertex 12.0035 93.1452 1.5
    endloop
  endfacet
  facet normal -0.21878 0.21878 0.950932
    outer loop
      vertex 11.6048 92.7465 1.5
      vertex 11.8468 93.2863 1.43148
      vertex 11.4637 92.9032 1.43148
    endloop
  endfacet
  facet normal -0.147209 0.147209 0.97809
    outer loop
      vertex 10.3251 94.6565 0.996233
      vertex 11.4637 92.9032 1.43148
      vertex 11.8468 93.2863 1.43148
    endloop
  endfacet
  facet normal -0.147209 0.147209 0.97809
    outer loop
      vertex 11.4637 92.9032 1.43148
      vertex 10.3251 94.6565 0.996233
      vertex 10.0935 94.4249 0.996233
    endloop
  endfacet
  facet normal -0.194714 0.240452 0.950931
    outer loop
      vertex 11.0426 92.5622 1.43148
      vertex 11.543 92.6965 1.5
      vertex 11.4637 92.9032 1.43148
    endloop
  endfacet
  facet normal -0.194713 0.240447 0.950932
    outer loop
      vertex 11.543 92.6965 1.5
      vertex 11.0426 92.5622 1.43148
      vertex 11.1665 92.3916 1.5
    endloop
  endfacet
  facet normal -0.0658711 0.0813443 0.994507
    outer loop
      vertex 9.839 94.2188 0.996233
      vertex 10.0935 94.4249 0.996233
      vertex 8.70039 95.9721 0.777409
    endloop
  endfacet
  facet normal -0.0740132 0.0740132 0.994507
    outer loop
      vertex 8.77786 96.0496 0.777409
      vertex 10.0935 94.4249 0.996233
      vertex 10.3251 94.6565 0.996233
    endloop
  endfacet
  facet normal -0.0740117 0.0740145 0.994507
    outer loop
      vertex 10.0935 94.4249 0.996233
      vertex 8.77786 96.0496 0.777409
      vertex 8.70039 95.9721 0.777409
    endloop
  endfacet
  facet normal -0.308976 0.0161953 0.950932
    outer loop
      vertex 13.3577 96.1869 1.5
      vertex 13.3619 96.2662 1.5
      vertex 13.148 96.2089 1.43148
    endloop
  endfacet
  facet normal -0.308976 -0.0161953 0.950932
    outer loop
      vertex 13.3619 97.2338 1.5
      vertex 13.3577 97.3131 1.5
      vertex 13.148 97.2911 1.43148
    endloop
  endfacet
  facet normal -0.101104 0.0270917 0.994507
    outer loop
      vertex 10.9756 95.7832 0.996233
      vertex 9.02385 96.5324 0.777409
      vertex 8.99549 96.4265 0.777409
    endloop
  endfacet
  facet normal -0.097718 0.0375117 0.994507
    outer loop
      vertex 10.9756 95.7832 0.996233
      vertex 8.99549 96.4265 0.777409
      vertex 8.95623 96.3243 0.777409
    endloop
  endfacet
  facet normal -0.185494 0.0945131 0.97809
    outer loop
      vertex 12.7289 94.6446 1.43148
      vertex 10.8582 95.4774 0.996233
      vertex 10.7095 95.1857 0.996233
    endloop
  endfacet
  facet normal -0.0932623 0.0475191 0.994507
    outer loop
      vertex 10.7095 95.1857 0.996233
      vertex 10.8582 95.4774 0.996233
      vertex 8.95623 96.3243 0.777409
    endloop
  endfacet
  facet normal -0.0813438 0.0658723 0.994507
    outer loop
      vertex 10.5312 94.911 0.996233
      vertex 8.84681 96.1348 0.777409
      vertex 8.77786 96.0496 0.777409
    endloop
  endfacet
  facet normal -0.0375112 0.097718 0.994507
    outer loop
      vertex 8.96682 93.7744 0.996233
      vertex 9.27255 93.8918 0.996233
      vertex 8.42574 95.7938 0.777409
    endloop
  endfacet
  facet normal -0.00548118 0.104527 0.994507
    outer loop
      vertex 8.32704 93.6385 0.996233
      vertex 8.10941 95.709 0.777409
      vertex 8 95.7033 0.777409
    endloop
  endfacet
  facet normal -0.048394 -0.305593 0.950932
    outer loop
      vertex 8.6416 102.095 1.5
      vertex 8.56312 102.108 1.5
      vertex 8.54108 101.898 1.43148
    endloop
  endfacet
  facet normal -0.0163706 -0.103382 0.994507
    outer loop
      vertex 8.21762 97.7738 0.777409
      vertex 8.32704 99.8615 0.996233
      vertex 8.10941 97.791 0.777409
    endloop
  endfacet
  facet normal -0.0746058 -0.194358 0.978089
    outer loop
      vertex 10.1054 101.479 1.43148
      vertex 9.59959 101.673 1.43148
      vertex 8.96682 99.7256 0.996233
    endloop
  endfacet
  facet normal 0 0 1
    outer loop
      vertex 9.04098 96.8594 0.777409
      vertex 9.04098 96.6406 0.777409
      vertex 9.04672 96.75 0.777409
    endloop
  endfacet
  facet normal 0 0 1
    outer loop
      vertex 9.02385 96.9676 0.777409
      vertex 9.04098 96.6406 0.777409
      vertex 9.04098 96.8594 0.777409
    endloop
  endfacet
  facet normal 0 0 1
    outer loop
      vertex 9.02385 96.9676 0.777409
      vertex 9.02385 96.5324 0.777409
      vertex 9.04098 96.6406 0.777409
    endloop
  endfacet
  facet normal 0 0 1
    outer loop
      vertex 8.99549 97.0735 0.777409
      vertex 9.02385 96.5324 0.777409
      vertex 9.02385 96.9676 0.777409
    endloop
  endfacet
  facet normal 0 0 1
    outer loop
      vertex 8.99549 97.0735 0.777409
      vertex 8.99549 96.4265 0.777409
      vertex 9.02385 96.5324 0.777409
    endloop
  endfacet
  facet normal 0 0 1
    outer loop
      vertex 8.95623 97.1757 0.777409
      vertex 8.99549 96.4265 0.777409
      vertex 8.99549 97.0735 0.777409
    endloop
  endfacet
  facet normal 0 0 1
    outer loop
      vertex 8.95623 97.1757 0.777409
      vertex 8.95623 96.3243 0.777409
      vertex 8.99549 96.4265 0.777409
    endloop
  endfacet
  facet normal 0 0 1
    outer loop
      vertex 8.90648 97.2734 0.777409
      vertex 8.95623 96.3243 0.777409
      vertex 8.95623 97.1757 0.777409
    endloop
  endfacet
  facet normal 0 0 1
    outer loop
      vertex 8.90648 97.2734 0.777409
      vertex 8.90648 96.2266 0.777409
      vertex 8.95623 96.3243 0.777409
    endloop
  endfacet
  facet normal 0 0 1
    outer loop
      vertex 8.84681 97.3652 0.777409
      vertex 8.90648 96.2266 0.777409
      vertex 8.90648 97.2734 0.777409
    endloop
  endfacet
  facet normal 0 0 1
    outer loop
      vertex 8.84681 97.3652 0.777409
      vertex 8.84681 96.1348 0.777409
      vertex 8.90648 96.2266 0.777409
    endloop
  endfacet
  facet normal 0 0 1
    outer loop
      vertex 8.77786 97.4504 0.777409
      vertex 8.84681 96.1348 0.777409
      vertex 8.84681 97.3652 0.777409
    endloop
  endfacet
  facet normal 0 0 1
    outer loop
      vertex 8.77786 97.4504 0.777409
      vertex 8.77786 96.0496 0.777409
      vertex 8.84681 96.1348 0.777409
    endloop
  endfacet
  facet normal 0 0 1
    outer loop
      vertex 8.70039 97.5279 0.777409
      vertex 8.77786 96.0496 0.777409
      vertex 8.77786 97.4504 0.777409
    endloop
  endfacet
  facet normal 0 0 1
    outer loop
      vertex 8.70039 97.5279 0.777409
      vertex 8.70039 95.9721 0.777409
      vertex 8.77786 96.0496 0.777409
    endloop
  endfacet
  facet normal 0 0 1
    outer loop
      vertex 8.61525 97.5968 0.777409
      vertex 8.70039 95.9721 0.777409
      vertex 8.70039 97.5279 0.777409
    endloop
  endfacet
  facet normal 0 0 1
    outer loop
      vertex 8.61525 97.5968 0.777409
      vertex 8.61525 95.9032 0.777409
      vertex 8.70039 95.9721 0.777409
    endloop
  endfacet
  facet normal 0 0 1
    outer loop
      vertex 8.52336 97.6565 0.777409
      vertex 8.61525 95.9032 0.777409
      vertex 8.61525 97.5968 0.777409
    endloop
  endfacet
  facet normal 0 0 1
    outer loop
      vertex 8.52336 97.6565 0.777409
      vertex 8.52336 95.8435 0.777409
      vertex 8.61525 95.9032 0.777409
    endloop
  endfacet
  facet normal 0 0 1
    outer loop
      vertex 8.42574 97.7062 0.777409
      vertex 8.52336 95.8435 0.777409
      vertex 8.52336 97.6565 0.777409
    endloop
  endfacet
  facet normal 0 0 1
    outer loop
      vertex 8.42574 97.7062 0.777409
      vertex 8.42574 95.7938 0.777409
      vertex 8.52336 95.8435 0.777409
    endloop
  endfacet
  facet normal 0 0 1
    outer loop
      vertex 8.32345 97.7455 0.777409
      vertex 8.42574 95.7938 0.777409
      vertex 8.42574 97.7062 0.777409
    endloop
  endfacet
  facet normal 0 0 1
    outer loop
      vertex 8.32345 97.7455 0.777409
      vertex 8.32345 95.7545 0.777409
      vertex 8.42574 95.7938 0.777409
    endloop
  endfacet
  facet normal 0 0 1
    outer loop
      vertex 8.21762 97.7738 0.777409
      vertex 8.32345 95.7545 0.777409
      vertex 8.32345 97.7455 0.777409
    endloop
  endfacet
  facet normal 0 0 1
    outer loop
      vertex 8.21762 97.7738 0.777409
      vertex 8.21762 95.7262 0.777409
      vertex 8.32345 95.7545 0.777409
    endloop
  endfacet
  facet normal 0 0 1
    outer loop
      vertex 8.10941 97.791 0.777409
      vertex 8.21762 95.7262 0.777409
      vertex 8.21762 97.7738 0.777409
    endloop
  endfacet
  facet normal 0 0 1
    outer loop
      vertex 8.10941 97.791 0.777409
      vertex 8.10941 95.709 0.777409
      vertex 8.21762 95.7262 0.777409
    endloop
  endfacet
  facet normal 0 0 1
    outer loop
      vertex 8 97.7967 0.777409
      vertex 8.10941 95.709 0.777409
      vertex 8.10941 97.791 0.777409
    endloop
  endfacet
  facet normal 0 0 1
    outer loop
      vertex 8.10941 95.709 0.777409
      vertex 8 97.7967 0.777409
      vertex 8 95.7033 0.777409
    endloop
  endfacet
  facet normal -0.00548118 -0.104527 0.994507
    outer loop
      vertex 8.10941 97.791 0.777409
      vertex 8.32704 99.8615 0.996233
      vertex 8 97.7967 0.777409
    endloop
  endfacet
  facet normal -0.097718 -0.0375117 0.994507
    outer loop
      vertex 8.99549 97.0735 0.777409
      vertex 10.9756 97.7168 0.996233
      vertex 8.95623 97.1757 0.777409
    endloop
  endfacet
  facet normal -0.0658713 -0.0813445 0.994507
    outer loop
      vertex 10.0935 99.0751 0.996233
      vertex 9.839 99.2812 0.996233
      vertex 8.70039 97.5279 0.777409
    endloop
  endfacet
  facet normal -0.0538794 -0.201092 0.97809
    outer loop
      vertex 8.96682 99.7256 0.996233
      vertex 9.07623 101.813 1.43148
      vertex 8.65049 99.8103 0.996233
    endloop
  endfacet
  facet normal -0.140469 -0.275681 0.95093
    outer loop
      vertex 10.262 101.635 1.5
      vertex 10.5882 101.233 1.43148
      vertex 10.6936 101.415 1.5
    endloop
  endfacet
  facet normal -0.140463 -0.275676 0.950933
    outer loop
      vertex 10.5882 101.233 1.43148
      vertex 10.262 101.635 1.5
      vertex 10.1054 101.479 1.43148
    endloop
  endfacet
  facet normal -0.103382 0.0163742 0.994507
    outer loop
      vertex 11.0603 96.0995 0.996233
      vertex 11.1115 96.423 0.996233
      vertex 9.02385 96.5324 0.777409
    endloop
  endfacet
  facet normal -0.205622 -0.0325667 0.97809
    outer loop
      vertex 11.1115 97.077 0.996233
      vertex 13.148 97.2911 1.43148
      vertex 11.0603 97.4005 0.996233
    endloop
  endfacet
  facet normal -0.207899 0.0108955 0.97809
    outer loop
      vertex 13.148 96.2089 1.43148
      vertex 13.1764 96.75 1.43148
      vertex 11.1287 96.75 0.996233
    endloop
  endfacet
  facet normal -0.104527 0.00547801 0.994507
    outer loop
      vertex 11.1115 96.423 0.996233
      vertex 11.1287 96.75 0.996233
      vertex 9.04672 96.75 0.777409
    endloop
  endfacet
  facet normal -0.275677 -0.140465 0.950932
    outer loop
      vertex 12.4829 99.3382 1.43148
      vertex 12.8854 99.012 1.5
      vertex 12.6655 99.4436 1.5
    endloop
  endfacet
  facet normal -0.275676 -0.140465 0.950932
    outer loop
      vertex 12.8854 99.012 1.5
      vertex 12.4829 99.3382 1.43148
      vertex 12.7289 98.8554 1.43148
    endloop
  endfacet
  facet normal -0.28885 0.11088 0.950932
    outer loop
      vertex 12.923 95.1504 1.43148
      vertex 12.95 94.633 1.5
      vertex 13.1236 95.0852 1.5
    endloop
  endfacet
  facet normal -0.28885 0.11088 0.950932
    outer loop
      vertex 12.95 94.633 1.5
      vertex 12.923 95.1504 1.43148
      vertex 12.7289 94.6446 1.43148
    endloop
  endfacet
  facet normal -0.298859 0.0800789 0.950931
    outer loop
      vertex 12.923 95.1504 1.43148
      vertex 13.249 95.5532 1.5
      vertex 13.0633 95.6738 1.43148
    endloop
  endfacet
  facet normal -0.298858 0.0800782 0.950932
    outer loop
      vertex 13.249 95.5532 1.5
      vertex 12.923 95.1504 1.43148
      vertex 13.1236 95.0852 1.5
    endloop
  endfacet
  facet normal -0.29886 0.0800773 0.950931
    outer loop
      vertex 13.249 95.5532 1.5
      vertex 13.2695 95.6299 1.5
      vertex 13.0633 95.6738 1.43148
    endloop
  endfacet
  facet normal -0.0270894 0.101105 0.994507
    outer loop
      vertex 8.65049 93.6897 0.996233
      vertex 8.96682 93.7744 0.996233
      vertex 8.21762 95.7262 0.777409
    endloop
  endfacet
  facet normal -0.048394 0.305593 0.950932
    outer loop
      vertex 8.56312 91.3923 1.5
      vertex 8.6416 91.4047 1.5
      vertex 8.54108 91.602 1.43148
    endloop
  endfacet
  facet normal -0.140458 0.27568 0.950932
    outer loop
      vertex 10.1912 91.8285 1.5
      vertex 10.262 91.8646 1.5
      vertex 10.1054 92.0211 1.43148
    endloop
  endfacet
  facet normal -0.0746081 0.194357 0.97809
    outer loop
      vertex 10.1054 92.0211 1.43148
      vertex 9.27255 93.8918 0.996233
      vertex 8.96682 93.7744 0.996233
    endloop
  endfacet
  facet normal -0.259483 0.168509 0.950933
    outer loop
      vertex 12.1878 93.7074 1.43148
      vertex 12.6222 93.9897 1.5
      vertex 12.4829 94.1618 1.43148
    endloop
  endfacet
  facet normal -0.259485 0.168512 0.950932
    outer loop
      vertex 12.6222 93.9897 1.5
      vertex 12.1878 93.7074 1.43148
      vertex 12.3584 93.5835 1.5
    endloop
  endfacet
  facet normal -0.259488 0.168504 0.950932
    outer loop
      vertex 12.6222 93.9897 1.5
      vertex 12.6655 94.0564 1.5
      vertex 12.4829 94.1618 1.43148
    endloop
  endfacet
  facet normal -0.094513 0.185494 0.97809
    outer loop
      vertex 10.1054 92.0211 1.43148
      vertex 10.5882 92.2671 1.43148
      vertex 9.56434 94.0405 0.996233
    endloop
  endfacet
  facet normal -0.194708 0.240455 0.950931
    outer loop
      vertex 11.543 92.6965 1.5
      vertex 11.6048 92.7465 1.5
      vertex 11.4637 92.9032 1.43148
    endloop
  endfacet
  facet normal -0.0813449 0.0658706 0.994507
    outer loop
      vertex 10.3251 94.6565 0.996233
      vertex 10.5312 94.911 0.996233
      vertex 8.77786 96.0496 0.777409
    endloop
  endfacet
  facet normal -0.0163745 -0.103382 0.994507
    outer loop
      vertex 8.65049 99.8103 0.996233
      vertex 8.32704 99.8615 0.996233
      vertex 8.21762 97.7738 0.777409
    endloop
  endfacet
  facet normal -0.0800783 -0.298855 0.950933
    outer loop
      vertex 9.19682 101.999 1.5
      vertex 9.59959 101.673 1.43148
      vertex 9.66475 101.874 1.5
    endloop
  endfacet
  facet normal -0.0800798 -0.298857 0.950932
    outer loop
      vertex 9.59959 101.673 1.43148
      vertex 9.19682 101.999 1.5
      vertex 9.07623 101.813 1.43148
    endloop
  endfacet
  facet normal -0.0054793 -0.104527 0.994507
    outer loop
      vertex 8.32704 99.8615 0.996233
      vertex 8 99.8787 0.996233
      vertex 8 97.7967 0.777409
    endloop
  endfacet
  facet normal -0.0325681 -0.205621 0.97809
    outer loop
      vertex 8.65049 99.8103 0.996233
      vertex 8.54108 101.898 1.43148
      vertex 8.32704 99.8615 0.996233
    endloop
  endfacet
  facet normal -0.0945132 -0.185494 0.97809
    outer loop
      vertex 9.56434 99.4595 0.996233
      vertex 10.1054 101.479 1.43148
      vertex 9.27255 99.6082 0.996233
    endloop
  endfacet
  facet normal -0.0977182 -0.0375109 0.994507
    outer loop
      vertex 10.9756 97.7168 0.996233
      vertex 10.8582 98.0226 0.996233
      vertex 8.95623 97.1757 0.777409
    endloop
  endfacet
  facet normal -0.298858 -0.0800794 0.950932
    outer loop
      vertex 12.923 98.3496 1.43148
      vertex 13.249 97.9468 1.5
      vertex 13.1236 98.4147 1.5
    endloop
  endfacet
  facet normal -0.298859 -0.0800799 0.950932
    outer loop
      vertex 13.249 97.9468 1.5
      vertex 12.923 98.3496 1.43148
      vertex 13.0633 97.8262 1.43148
    endloop
  endfacet
  facet normal -0.101104 -0.0270905 0.994507
    outer loop
      vertex 11.0603 97.4005 0.996233
      vertex 10.9756 97.7168 0.996233
      vertex 9.02385 96.9676 0.777409
    endloop
  endfacet
  facet normal -0.207899 -0.0108955 0.97809
    outer loop
      vertex 13.1764 96.75 1.43148
      vertex 13.148 97.2911 1.43148
      vertex 11.1287 96.75 0.996233
    endloop
  endfacet
  facet normal -0.240449 -0.194714 0.950932
    outer loop
      vertex 12.0535 100.293 1.5
      vertex 12.1878 99.7926 1.43148
      vertex 12.3584 99.9165 1.5
    endloop
  endfacet
  facet normal -0.240452 -0.194714 0.950931
    outer loop
      vertex 12.1878 99.7926 1.43148
      vertex 12.0535 100.293 1.5
      vertex 11.8468 100.214 1.43148
    endloop
  endfacet
  facet normal -0.259485 -0.168512 0.950932
    outer loop
      vertex 12.1878 99.7926 1.43148
      vertex 12.6222 99.5103 1.5
      vertex 12.3584 99.9165 1.5
    endloop
  endfacet
  facet normal -0.259483 -0.168509 0.950933
    outer loop
      vertex 12.6222 99.5103 1.5
      vertex 12.1878 99.7926 1.43148
      vertex 12.4829 99.3382 1.43148
    endloop
  endfacet
  facet normal -0.168518 -0.259489 0.95093
    outer loop
      vertex 10.7603 101.372 1.5
      vertex 11.0426 100.938 1.43148
      vertex 11.1665 101.108 1.5
    endloop
  endfacet
  facet normal -0.168513 -0.259486 0.950931
    outer loop
      vertex 11.0426 100.938 1.43148
      vertex 10.7603 101.372 1.5
      vertex 10.5882 101.233 1.43148
    endloop
  endfacet
  facet normal -0.194715 -0.240455 0.95093
    outer loop
      vertex 11.0426 100.938 1.43148
      vertex 11.543 100.804 1.5
      vertex 11.1665 101.108 1.5
    endloop
  endfacet
  facet normal -0.194714 -0.240452 0.950931
    outer loop
      vertex 11.543 100.804 1.5
      vertex 11.0426 100.938 1.43148
      vertex 11.4637 100.597 1.43148
    endloop
  endfacet
  facet normal -0.207899 0.0108955 0.97809
    outer loop
      vertex 13.148 96.2089 1.43148
      vertex 11.1287 96.75 0.996233
      vertex 11.1115 96.423 0.996233
    endloop
  endfacet
  facet normal -0.205622 0.0325675 0.97809
    outer loop
      vertex 13.148 96.2089 1.43148
      vertex 11.1115 96.423 0.996233
      vertex 11.0603 96.0995 0.996233
    endloop
  endfacet
  facet normal -0.305592 -0.0484015 0.950931
    outer loop
      vertex 13.0633 97.8262 1.43148
      vertex 13.3453 97.3916 1.5
      vertex 13.2695 97.8701 1.5
    endloop
  endfacet
  facet normal -0.305591 -0.0484004 0.950932
    outer loop
      vertex 13.3453 97.3916 1.5
      vertex 13.0633 97.8262 1.43148
      vertex 13.148 97.2911 1.43148
    endloop
  endfacet
  facet normal -0.205622 -0.032567 0.97809
    outer loop
      vertex 13.148 97.2911 1.43148
      vertex 13.0633 97.8262 1.43148
      vertex 11.0603 97.4005 0.996233
    endloop
  endfacet
  facet normal -0.308977 -0.0161922 0.950932
    outer loop
      vertex 13.3619 97.2338 1.5
      vertex 13.1764 96.75 1.43148
      vertex 13.3873 96.75 1.5
    endloop
  endfacet
  facet normal -0.308976 -0.0161927 0.950932
    outer loop
      vertex 13.1764 96.75 1.43148
      vertex 13.3619 97.2338 1.5
      vertex 13.148 97.2911 1.43148
    endloop
  endfacet
  facet normal -0.308977 0.0161922 0.950932
    outer loop
      vertex 13.1764 96.75 1.43148
      vertex 13.3619 96.2662 1.5
      vertex 13.3873 96.75 1.5
    endloop
  endfacet
  facet normal -0.308976 0.0161927 0.950932
    outer loop
      vertex 13.3619 96.2662 1.5
      vertex 13.1764 96.75 1.43148
      vertex 13.148 96.2089 1.43148
    endloop
  endfacet
  facet normal -0.288851 -0.110878 0.950932
    outer loop
      vertex 12.95 98.867 1.5
      vertex 12.9215 98.9412 1.5
      vertex 12.7289 98.8554 1.43148
    endloop
  endfacet
  facet normal -0.0538794 0.201092 0.97809
    outer loop
      vertex 9.07623 91.6867 1.43148
      vertex 8.96682 93.7744 0.996233
      vertex 8.65049 93.6897 0.996233
    endloop
  endfacet
  facet normal -0.0800808 0.298865 0.950929
    outer loop
      vertex 9.59959 91.827 1.43148
      vertex 9.19682 91.501 1.5
      vertex 9.66475 91.6264 1.5
    endloop
  endfacet
  facet normal -0.080076 0.298859 0.950932
    outer loop
      vertex 9.19682 91.501 1.5
      vertex 9.59959 91.827 1.43148
      vertex 9.07623 91.6867 1.43148
    endloop
  endfacet
  facet normal -0.037515 0.0977169 0.994507
    outer loop
      vertex 8.96682 93.7744 0.996233
      vertex 8.42574 95.7938 0.777409
      vertex 8.32345 95.7545 0.777409
    endloop
  endfacet
  facet normal -0.0270921 0.101104 0.994507
    outer loop
      vertex 8.96682 93.7744 0.996233
      vertex 8.32345 95.7545 0.777409
      vertex 8.21762 95.7262 0.777409
    endloop
  endfacet
  facet normal -0.0800906 0.298851 0.950933
    outer loop
      vertex 9.12007 91.4805 1.5
      vertex 9.19682 91.501 1.5
      vertex 9.07623 91.6867 1.43148
    endloop
  endfacet
  facet normal -0.110883 0.288853 0.950931
    outer loop
      vertex 9.59959 91.827 1.43148
      vertex 10.117 91.8 1.5
      vertex 10.1054 92.0211 1.43148
    endloop
  endfacet
  facet normal -0.110882 0.288856 0.95093
    outer loop
      vertex 10.117 91.8 1.5
      vertex 9.59959 91.827 1.43148
      vertex 9.66475 91.6264 1.5
    endloop
  endfacet
  facet normal -0.240452 0.194714 0.950931
    outer loop
      vertex 12.0035 93.1452 1.5
      vertex 12.0535 93.207 1.5
      vertex 11.8468 93.2863 1.43148
    endloop
  endfacet
  facet normal -0.0570061 0.087785 0.994507
    outer loop
      vertex 9.56434 94.0405 0.996233
      vertex 8.61525 95.9032 0.777409
      vertex 8.52336 95.8435 0.777409
    endloop
  endfacet
  facet normal -0.0570074 0.0877844 0.994507
    outer loop
      vertex 9.56434 94.0405 0.996233
      vertex 9.839 94.2188 0.996233
      vertex 8.61525 95.9032 0.777409
    endloop
  endfacet
  facet normal -0.016192 -0.308972 0.950933
    outer loop
      vertex 8 101.926 1.43148
      vertex 8.48377 102.112 1.5
      vertex 8 102.137 1.5
    endloop
  endfacet
  facet normal -0.0161895 -0.308978 0.950932
    outer loop
      vertex 8.48377 102.112 1.5
      vertex 8 101.926 1.43148
      vertex 8.54108 101.898 1.43148
    endloop
  endfacet
  facet normal -0.094513 -0.185494 0.97809
    outer loop
      vertex 10.5882 101.233 1.43148
      vertex 10.1054 101.479 1.43148
      vertex 9.56434 99.4595 0.996233
    endloop
  endfacet
  facet normal -0.113386 -0.174598 0.97809
    outer loop
      vertex 11.0426 100.938 1.43148
      vertex 10.5882 101.233 1.43148
      vertex 9.56434 99.4595 0.996233
    endloop
  endfacet
  facet normal -0.0270894 -0.101105 0.994507
    outer loop
      vertex 8.96682 99.7256 0.996233
      vertex 8.65049 99.8103 0.996233
      vertex 8.21762 97.7738 0.777409
    endloop
  endfacet
  facet normal -0.0570061 -0.087785 0.994507
    outer loop
      vertex 8.61525 97.5968 0.777409
      vertex 9.56434 99.4595 0.996233
      vertex 8.52336 97.6565 0.777409
    endloop
  endfacet
  facet normal -0.0813438 -0.0658723 0.994507
    outer loop
      vertex 8.84681 97.3652 0.777409
      vertex 10.5312 98.589 0.996233
      vertex 8.77786 97.4504 0.777409
    endloop
  endfacet
  facet normal -0.0877848 -0.0570065 0.994507
    outer loop
      vertex 8.90648 97.2734 0.777409
      vertex 10.7095 98.3143 0.996233
      vertex 8.84681 97.3652 0.777409
    endloop
  endfacet
  facet normal -0.093263 -0.047518 0.994507
    outer loop
      vertex 8.95623 97.1757 0.777409
      vertex 10.7095 98.3143 0.996233
      vertex 8.90648 97.2734 0.777409
    endloop
  endfacet
  facet normal -0.0932623 -0.0475191 0.994507
    outer loop
      vertex 10.8582 98.0226 0.996233
      vertex 10.7095 98.3143 0.996233
      vertex 8.95623 97.1757 0.777409
    endloop
  endfacet
  facet normal -0.185494 -0.0945131 0.97809
    outer loop
      vertex 10.8582 98.0226 0.996233
      vertex 12.7289 98.8554 1.43148
      vertex 10.7095 98.3143 0.996233
    endloop
  endfacet
  facet normal -0.101104 -0.02709 0.994507
    outer loop
      vertex 9.02385 96.9676 0.777409
      vertex 10.9756 97.7168 0.996233
      vertex 8.99549 97.0735 0.777409
    endloop
  endfacet
  facet normal -0.207899 -0.0108957 0.97809
    outer loop
      vertex 11.1287 96.75 0.996233
      vertex 13.148 97.2911 1.43148
      vertex 11.1115 97.077 0.996233
    endloop
  endfacet
  facet normal -0.104527 -0.00547813 0.994507
    outer loop
      vertex 11.1287 96.75 0.996233
      vertex 11.1115 97.077 0.996233
      vertex 9.04672 96.75 0.777409
    endloop
  endfacet
  facet normal -0.103382 0.016373 0.994507
    outer loop
      vertex 11.1115 96.423 0.996233
      vertex 9.04098 96.6406 0.777409
      vertex 9.02385 96.5324 0.777409
    endloop
  endfacet
  facet normal -0.104527 0.00547836 0.994507
    outer loop
      vertex 11.1115 96.423 0.996233
      vertex 9.04672 96.75 0.777409
      vertex 9.04098 96.6406 0.777409
    endloop
  endfacet
  facet normal -0.201091 -0.0538828 0.97809
    outer loop
      vertex 13.0633 97.8262 1.43148
      vertex 12.923 98.3496 1.43148
      vertex 10.9756 97.7168 0.996233
    endloop
  endfacet
  facet normal -0.194358 -0.0746063 0.978089
    outer loop
      vertex 12.923 98.3496 1.43148
      vertex 12.7289 98.8554 1.43148
      vertex 10.9756 97.7168 0.996233
    endloop
  endfacet
  facet normal -0.0108962 0.207899 0.97809
    outer loop
      vertex 8.54108 91.602 1.43148
      vertex 8 93.6213 0.996234
      vertex 8 91.5736 1.43148
    endloop
  endfacet
  facet normal -0.0325681 0.205621 0.97809
    outer loop
      vertex 8.54108 91.602 1.43148
      vertex 8.65049 93.6897 0.996233
      vertex 8.32704 93.6385 0.996233
    endloop
  endfacet
  facet normal -0.0163745 0.103382 0.994507
    outer loop
      vertex 8.32704 93.6385 0.996233
      vertex 8.65049 93.6897 0.996233
      vertex 8.21762 95.7262 0.777409
    endloop
  endfacet
  facet normal -0.0538802 0.201091 0.97809
    outer loop
      vertex 9.07623 91.6867 1.43148
      vertex 9.59959 91.827 1.43148
      vertex 8.96682 93.7744 0.996233
    endloop
  endfacet
  facet normal -0.0746082 0.194357 0.97809
    outer loop
      vertex 9.59959 91.827 1.43148
      vertex 10.1054 92.0211 1.43148
      vertex 8.96682 93.7744 0.996233
    endloop
  endfacet
  facet normal -0.047519 0.0932622 0.994507
    outer loop
      vertex 9.27255 93.8918 0.996233
      vertex 9.56434 94.0405 0.996233
      vertex 8.42574 95.7938 0.777409
    endloop
  endfacet
  facet normal -0.0945132 0.185494 0.97809
    outer loop
      vertex 10.1054 92.0211 1.43148
      vertex 9.56434 94.0405 0.996233
      vertex 9.27255 93.8918 0.996233
    endloop
  endfacet
  facet normal -0.0108933 -0.2079 0.978089
    outer loop
      vertex 8.54108 101.898 1.43148
      vertex 8 101.926 1.43148
      vertex 8 99.8787 0.996233
    endloop
  endfacet
  facet normal -0.113388 -0.174596 0.97809
    outer loop
      vertex 9.839 99.2812 0.996233
      vertex 11.0426 100.938 1.43148
      vertex 9.56434 99.4595 0.996233
    endloop
  endfacet
  facet normal -0.131015 -0.161789 0.97809
    outer loop
      vertex 11.4637 100.597 1.43148
      vertex 11.0426 100.938 1.43148
      vertex 9.839 99.2812 0.996233
    endloop
  endfacet
  facet normal -0.103382 -0.0163741 0.994507
    outer loop
      vertex 9.04098 96.8594 0.777409
      vertex 11.1115 97.077 0.996233
      vertex 9.02385 96.9676 0.777409
    endloop
  endfacet
  facet normal -0.104527 -0.00547836 0.994507
    outer loop
      vertex 9.04672 96.75 0.777409
      vertex 11.1115 97.077 0.996233
      vertex 9.04098 96.8594 0.777409
    endloop
  endfacet
  facet normal -0.0746081 -0.194357 0.97809
    outer loop
      vertex 9.27255 99.6082 0.996233
      vertex 10.1054 101.479 1.43148
      vertex 8.96682 99.7256 0.996233
    endloop
  endfacet
  facet normal -0.16179 -0.131015 0.97809
    outer loop
      vertex 12.1878 99.7926 1.43148
      vertex 11.8468 100.214 1.43148
      vertex 10.5312 98.589 0.996233
    endloop
  endfacet
  facet normal -0.0270921 -0.101104 0.994507
    outer loop
      vertex 8.32345 97.7455 0.777409
      vertex 8.96682 99.7256 0.996233
      vertex 8.21762 97.7738 0.777409
    endloop
  endfacet
  facet normal -0.047519 -0.0932622 0.994507
    outer loop
      vertex 9.56434 99.4595 0.996233
      vertex 9.27255 99.6082 0.996233
      vertex 8.42574 97.7062 0.777409
    endloop
  endfacet
  facet normal -0.0375112 -0.097718 0.994507
    outer loop
      vertex 9.27255 99.6082 0.996233
      vertex 8.96682 99.7256 0.996233
      vertex 8.42574 97.7062 0.777409
    endloop
  endfacet
  facet normal -0.0570092 -0.0877834 0.994507
    outer loop
      vertex 9.839 99.2812 0.996233
      vertex 9.56434 99.4595 0.996233
      vertex 8.61525 97.5968 0.777409
    endloop
  endfacet
  facet normal -0.0658743 -0.0813425 0.994507
    outer loop
      vertex 8.70039 97.5279 0.777409
      vertex 9.839 99.2812 0.996233
      vertex 8.61525 97.5968 0.777409
    endloop
  endfacet
  facet normal -0.174598 -0.113386 0.97809
    outer loop
      vertex 10.7095 98.3143 0.996233
      vertex 12.1878 99.7926 1.43148
      vertex 10.5312 98.589 0.996233
    endloop
  endfacet
  facet normal -0.0740134 -0.0740134 0.994507
    outer loop
      vertex 10.0935 99.0751 0.996233
      vertex 8.77786 97.4504 0.777409
      vertex 10.3251 98.8435 0.996233
    endloop
  endfacet
  facet normal -0.0740119 -0.0740146 0.994507
    outer loop
      vertex 8.77786 97.4504 0.777409
      vertex 10.0935 99.0751 0.996233
      vertex 8.70039 97.5279 0.777409
    endloop
  endfacet
  facet normal -0.0475162 -0.093264 0.994507
    outer loop
      vertex 8.52336 97.6565 0.777409
      vertex 9.56434 99.4595 0.996233
      vertex 8.42574 97.7062 0.777409
    endloop
  endfacet
  facet normal -0.161789 -0.131016 0.97809
    outer loop
      vertex 10.5312 98.589 0.996233
      vertex 11.8468 100.214 1.43148
      vertex 10.3251 98.8435 0.996233
    endloop
  endfacet
  facet normal -0.081344 -0.0658719 0.994507
    outer loop
      vertex 10.5312 98.589 0.996233
      vertex 10.3251 98.8435 0.996233
      vertex 8.77786 97.4504 0.777409
    endloop
  endfacet
  facet normal -0.147209 -0.147209 0.97809
    outer loop
      vertex 11.4637 100.597 1.43148
      vertex 10.3251 98.8435 0.996233
      vertex 11.8468 100.214 1.43148
    endloop
  endfacet
  facet normal -0.147209 -0.147209 0.97809
    outer loop
      vertex 10.3251 98.8435 0.996233
      vertex 11.4637 100.597 1.43148
      vertex 10.0935 99.0751 0.996233
    endloop
  endfacet
  facet normal 1 0 0
    outer loop
      vertex 8 102.137 1.5
      vertex 8 99.8787 0.996233
      vertex 8 101.926 1.43148
    endloop
  endfacet
  facet normal 1 0 0
    outer loop
      vertex 8 102.137 1.5
      vertex 8 97.7967 0.777409
      vertex 8 99.8787 0.996233
    endloop
  endfacet
  facet normal 1 0 0
    outer loop
      vertex 8 102.137 1.5
      vertex 8 95.7033 0.777409
      vertex 8 97.7967 0.777409
    endloop
  endfacet
  facet normal 1 0 0
    outer loop
      vertex 8 102.137 1.5
      vertex 8 93.6213 0.996234
      vertex 8 95.7033 0.777409
    endloop
  endfacet
  facet normal 1 -0 0
    outer loop
      vertex 8 91.3627 1.5
      vertex 8 93.6213 0.996234
      vertex 8 102.137 1.5
    endloop
  endfacet
  facet normal 1 0 0
    outer loop
      vertex 8 93.6213 0.996234
      vertex 8 91.3627 1.5
      vertex 8 91.5736 1.43148
    endloop
  endfacet
  facet normal 1 0 0
    outer loop
      vertex 8 95.7033 0.777409
      vertex 8 93.6213 0.996234
      vertex 8 93.6213 0.996233
    endloop
  endfacet
endsolid OpenSCAD_Model
